# xmcd
#
# Track frame offsets:
#	150
#	12861
#	24563
#	38050
#	50998
#	64005
#	75965
#	89244
#	101445
#	114518
#	126976
#	139896
#	152037
#	163929
#	175725
#	188393
#	202679
#	216732
#	228408
#	240940
#	253047
#	266014
#	278917
#	291569
#
# Disc length: 4062 seconds
#
# Revision: 5
# Processed by: cddbd v1.5.2PL0 Copyright (c) Steve Scherf et al.
# Submitted via: EasyCDDAExtractor 16.0.6.1
#
DISCID=5a0fdc18
DTITLE=Dinah Washington - JB-256 Sings The Blues
DYEAR=1900
DGENRE=Blues
TTITLE0=No Love, No Nothing
TTITLE1=Shoo Shoo Baby
TTITLE2=Stairway To The Stars
TTITLE3=I Want To Be Loved
TTITLE4=Postman Blues
TTITLE5=Since I Fell For You
TTITLE6=West Side Baby
TTITLE7=You Can Depend On Me
TTITLE8=Embraceable You
TTITLE9=I Can't Get Started (With You)
TTITLE10=That's When A Woman Loves A Heel
TTITLE11=Oo Wee Walkie Talkie
TTITLE12=I Love You, Yes I Do
TTITLE13=What Can I Say After I Say I'm Sorry?
TTITLE14=Am I Asking Too Much?
TTITLE15=I Want To Cry
TTITLE16=I Sold My Heart To The Junk Man
TTITLE17=It's Funny
TTITLE18=Why Can't You Behave?
TTITLE19=It's Too Soon To Know
TTITLE20=Blues For A Day
TTITLE21=All Or Nothing
TTITLE22=Wise Woman Blues
TTITLE23=Rich Man's Blues
EXTD=
EXTT0=
EXTT1=
EXTT2=
EXTT3=
EXTT4=
EXTT5=
EXTT6=
EXTT7=
EXTT8=
EXTT9=
EXTT10=
EXTT11=
EXTT12=
EXTT13=
EXTT14=
EXTT15=
EXTT16=
EXTT17=
EXTT18=
EXTT19=
EXTT20=
EXTT21=
EXTT22=
EXTT23=
PLAYORDER=
